<svg xmlns="http://www.w3.org/2000/svg" viewBox="0 0 640 640">
  <rect width="640" height="640" rx="64" fill="#f7fbff"/>
  <rect x="28" y="28" width="584" height="584" rx="48" fill="none" stroke="#139bff" stroke-width="4"/>
  <g fill="#06111f">
    <path d="M74 74h154v154H74zm34 34v86h86v-86z"/>
    <path d="M412 74h154v154H412zm34 34v86h86v-86z"/>
    <path d="M74 412h154v154H74zm34 34v86h86v-86z"/>
    <path d="M276 76h42v42h-42zm66 0h34v74h-34zm-66 66h42v34h-42zm68 34h34v42h-34z"/>
    <path d="M264 252h46v46h-46zm70 0h42v42h-42zm68 2h40v86h-40zm66 0h38v38h-38zm62 0h38v78h-38z"/>
    <path d="M252 326h40v40h-40zm62-12h46v94h-46zm68 38h40v40h-40zm68-2h46v46h-46zm72 10h38v38h-38z"/>
    <path d="M260 432h42v42h-42zm66-6h38v86h-38zm62 0h42v42h-42zm68 0h38v38h-38zm64 0h44v88h-44z"/>
    <path d="M258 500h42v66h-42zm128-4h42v70h-42zm68 4h38v38h-38zm-182-282h38v38h-38z"/>
  </g>
  <circle cx="320" cy="320" r="76" fill="#0b1726" stroke="#27adff" stroke-width="5"/>
  <text x="320" y="310" text-anchor="middle" font-family="Arial, sans-serif" font-size="30" font-weight="700" fill="#fff">WECHAT</text>
  <text x="320" y="350" text-anchor="middle" font-family="Arial, sans-serif" font-size="22" fill="#48bfff">QR CODE</text>
  <text x="320" y="603" text-anchor="middle" font-family="Arial, sans-serif" font-size="18" letter-spacing="4" fill="#476078">请替换为真实微信二维码</text>
</svg>
